<?xml version="1.0" encoding="utf-8"?>
<!-- Generator: Adobe Illustrator 19.2.1, SVG Export Plug-In . SVG Version: 6.00 Build 0)  -->
<svg version="1.2" baseProfile="tiny" id="Layer_1" xmlns="http://www.w3.org/2000/svg" xmlns:xlink="http://www.w3.org/1999/xlink"
	 x="0px" y="0px" viewBox="0 0 63.5 59.2" xml:space="preserve">
<path fill="#FF7396" d="M51.7,0H11.9C5.3,0,0,5.3,0,11.9v45.4c0,1.1,0.9,2,2,2s2-0.9,2-2c0-4,3.2-7.2,7.2-7.2h40.6
	c6.5,0,11.9-5.3,11.9-11.9V11.9C63.6,5.3,58.3,0,51.7,0z M59.6,38.2c0,4.3-3.5,7.9-7.9,7.9H11.2c-2.7,0-5.2,1-7.2,2.6V11.9
	C4,7.5,7.5,4,11.9,4h39.9c4.3,0,7.9,3.5,7.9,7.9V38.2z"/>
<path fill="#FF7396" d="M52.5,25c-0.8-2.9-3.5-4.9-6.5-4.9c-3,0-5.7,2-6.5,4.9c-0.3,1.2-1.4,2-2.7,2c-1.2,0-2.1-0.8-2.7-2
	c-1-2.6-3.7-4.8-6.5-4.8c-3,0-5.4,2.1-6.5,4.9c-0.6,1.5-1.4,2-2.7,2c-1.2,0-2.3-0.8-2.7-2c-0.3-1.1-1.4-1.7-2.5-1.4
	c-1.1,0.3-1.7,1.4-1.4,2.5c0.8,2.9,3.5,4.9,6.5,4.9c3,0,5.6-2,6.5-4.8c0,0,0,0,0,0c0,0,0,0,0,0c0.3-1.2,1.4-2,2.7-2s2.4,1.1,2.9,2.5
	c1,2.6,3.5,4.4,6.3,4.4c3,0,5.6-2,6.5-4.8c0.3-1.2,1.4-2,2.7-2c1.2,0,2.3,0.8,2.7,2c0.3,1.1,1.4,1.7,2.5,1.4
	C52.2,27.2,52.9,26,52.5,25z"/>
</svg>
