<?xml version="1.0" encoding="utf-8"?>
<!-- Generator: Adobe Illustrator 19.2.1, SVG Export Plug-In . SVG Version: 6.00 Build 0)  -->
<svg version="1.2" baseProfile="tiny" id="Layer_1" xmlns="http://www.w3.org/2000/svg" xmlns:xlink="http://www.w3.org/1999/xlink"
	 x="0px" y="0px" viewBox="0 0 65.2 70.1" xml:space="preserve">
<path fill="#FF7396" d="M63.7,53.6c-4.5-7.6-12.1-13-21-15.4C48.9,34.7,53,28.1,53,20.4C53,9.2,43.9,0,32.6,0
	C21.3,0,12.1,9.2,12.1,20.4c0,7.6,4.2,14.2,10.4,17.8C13.6,40.6,6,46,1.5,53.6c-1.9,3.3-2,7.1-0.1,10.4c2.2,3.8,6.4,6.2,11.2,6.2h40
	c4.7,0,9-2.4,11.2-6.2C65.7,60.7,65.6,56.9,63.7,53.6z M16.1,20.4C16.1,11.4,23.5,4,32.6,4S49,11.4,49,20.4
	c0,9.1-7.4,16.4-16.4,16.4S16.1,29.5,16.1,20.4z M60.3,62c-1.5,2.6-4.4,4.1-7.7,4.1h-40c-3.3,0-6.2-1.6-7.7-4.1
	c-1.2-2.1-1.2-4.3,0.1-6.4c5.4-9.1,16-14.7,27.7-14.7s22.3,5.6,27.7,14.7C61.5,57.7,61.5,59.9,60.3,62z"/>
</svg>
