<svg xmlns="http://www.w3.org/2000/svg" viewBox="0 0 1092.1 205.25"><defs><style>.a{fill:#635da8;}.b{fill:#91f2aa;}.c{fill:#ff7396;}</style></defs><title>logo-header2</title><path class="a" d="M1085,118.45H898.46a7.15,7.15,0,0,0,0,14.3H1085A7.15,7.15,0,0,0,1085,118.45Z" transform="translate(0 0.18)"/><path class="b" d="M898.79,118.45H788.46a66.21,66.21,0,0,0-61.19,40.46,52.18,52.18,0,0,1-96.3-.42,66.49,66.49,0,0,0-122.11.26,52,52,0,0,1-48.16,32,7.15,7.15,0,1,0,0,14.3A66.26,66.26,0,0,0,522,164.32a52.19,52.19,0,0,1,95.78-.25,66.48,66.48,0,0,0,122.64.41,51.94,51.94,0,0,1,48-31.73H898.79A7.15,7.15,0,0,0,898.79,118.45Z" transform="translate(0 0.18)"/><path class="c" d="M461.15,190.77c-0.08,0,0,0,0,0h0a52.39,52.39,0,0,1-48.28-31.85,66.52,66.52,0,0,0-31.48-33.32,66.51,66.51,0,1,0-59.73,0,66.36,66.36,0,0,0-31.37,33.31,52.12,52.12,0,0,1-100.15-20.3V66.29A66.46,66.46,0,0,0,123.57,0H7.15a7,7,0,1,0,0,14H123.57c28.76,0,52.55,23.52,52.55,52.29v72.32a66.3,66.3,0,0,0,127.4,25.89,52.29,52.29,0,0,1,96.17,0,66.38,66.38,0,0,0,61.42,40.56h0s-0.05,0,0,0A7.15,7.15,0,0,0,461.15,190.77ZM299.28,66.29a52.16,52.16,0,1,1,52.16,52.16A52.22,52.22,0,0,1,299.28,66.29Z" transform="translate(0 0.18)"/></svg>