<svg xmlns="http://www.w3.org/2000/svg" viewBox="0 0 1831.98 205.25"><defs><style>.a{fill:#635da8;}.b{fill:#91f2aa;}.c{fill:#ff7396;}</style></defs><title>logo-header</title><path class="a" d="M1824.83,118.62H1638.34a7.15,7.15,0,0,0,0,14.3h186.49A7.15,7.15,0,0,0,1824.83,118.62Z"/><path class="b" d="M1638.67,118.62H1528.34a66.21,66.21,0,0,0-61.19,40.46,52.18,52.18,0,0,1-96.3-.42,66.49,66.49,0,0,0-122.11.26,52,52,0,0,1-48.16,32,7.15,7.15,0,0,0,0,14.3,66.26,66.26,0,0,0,61.33-40.75,52.19,52.19,0,0,1,95.78-.25,66.48,66.48,0,0,0,122.64.41,51.94,51.94,0,0,1,48-31.73h110.33A7.15,7.15,0,0,0,1638.67,118.62Z"/><path class="c" d="M1207.69,195.43a7,7,0,0,0-6.23-4.46l-0.46,0h0a52.39,52.39,0,0,1-48.28-31.85,66.52,66.52,0,0,0-31.48-33.32,66.51,66.51,0,1,0-59.73,0,66.36,66.36,0,0,0-31.37,33.31A52,52,0,0,1,982,190.95c-28.86-.09-52-24.12-52-53V66.73A66.64,66.64,0,0,0,863.34.18H0v14H863.45A52.7,52.7,0,0,1,916,66.73V138c0,36.86,30.16,67.66,67,67.25a66.23,66.23,0,0,0,60.38-40.57,52.29,52.29,0,0,1,96.17,0A66.38,66.38,0,0,0,1201,205.25h0A7.18,7.18,0,0,0,1207.69,195.43Zm-116.38-76.81a52.16,52.16,0,1,1,52.16-52.16A52.22,52.22,0,0,1,1091.32,118.62Z"/></svg>