<?xml version="1.0" encoding="utf-8"?>
<svg version="1.1" id="dribbble-svg" xmlns="http://www.w3.org/2000/svg" xmlns:xlink="http://www.w3.org/1999/xlink" x="0px"
	 y="0px" viewBox="0 0 612 792" enable-background="new 0 0 612 792" xml:space="preserve">
<path fill="#FAFDFF" d="M0,90v612h612V90H0z M570,616.1H42V132H570V616.1z"/>
<path fill="#FAFDFF" d="M306,198.9c-95.5,0-172.6,77.1-172.6,172.6S210.5,544.1,306,544.1s172.6-78.3,172.6-172.6
	S401.5,198.9,306,198.9z M306,224.6c37.9,0,71,13.5,97.9,36.7c-2.4,3.7-24.5,33-77.1,52.6c-24.5-44.1-51.4-80.8-55.1-85.7
	C282.7,225.9,293.8,224.6,306,224.6z M243.6,239.3c3.7,4.9,30.6,41.6,55.1,84.5c-68.5,18.4-129.7,18.4-135.9,18.4
	C171.4,295.6,202,257.7,243.6,239.3z M159.1,371.5c0-1.2,0-2.4,0-4.9c6.1,0,78.3,1.2,151.8-20.8c3.7,8.6,8.6,17.1,12.2,24.5
	c-2.4,0-3.7,1.2-6.1,1.2c-75.9,24.5-116.3,91.8-120,96.7C173.8,443.7,159.1,409.5,159.1,371.5z M306,518.4
	c-34.3,0-64.9-11-90.6-30.6c2.4-4.9,31.8-62.4,115.1-91.8h1.2c20.8,53.9,29.4,97.9,31.8,111.4C346.4,514.7,326.8,518.4,306,518.4z
	 M388,493.9c-1.2-8.6-9.8-51.4-28.2-105.3c46.5-7.3,86.9,4.9,91.8,6.1C444.3,436.4,421.1,470.7,388,493.9z M350.1,365.4
	c-1.2-2.4-2.4-4.9-3.7-7.3c-2.4-7.3-6.1-14.7-9.8-20.8c53.9-22,79.6-53.9,82-57.5c20.8,24.5,33,56.3,33,91.8
	C448,369.1,399,359.3,350.1,365.4z"/>
</svg>
