<svg xmlns="http://www.w3.org/2000/svg" viewBox="0 0 500 502.35"><defs><style>.a{fill:#27daa5;}</style></defs><title>logo</title><polygon class="a" points="199.95 312.12 179 319.95 179 319.74 199.95 312.12"/><polygon class="a" points="259.58 22 243.06 22 257.65 16.69 259.58 22"/><polygon class="a" points="356.17 254.5 336.32 231.01 266.9 256.01 290.23 319.92 245.52 336.58 255.41 363.55 327.22 336.14 302.85 273.11 356.17 254.5"/><polygon class="a" points="208 123.4 287.8 218.05 316.59 207.54 219.44 92.52 179 107.26 179 188.15 208 177.65 208 123.4"/><polygon class="a" points="240.38 265.85 208 278.38 208 208.34 179 218.84 179 320 250.32 293.46 240.38 265.85"/><path class="a" d="M0,0V377.32l12.68,6.29L240.07,497.27l10.19,5.08,10.18-5.08L487.6,383.61l12.4-6.29V0H0ZM478,363.27L250,476.93,22,363.27V22H478V363.27Z"/></svg>