<svg xmlns="http://www.w3.org/2000/svg" viewBox="0 0 500 500"><defs><style>.a{fill:#27daa5;}</style></defs><title>logo</title><polygon class="a" points="312.95 241.52 312.9 241.47 288.24 250.38 312.95 241.52"/><polygon class="a" points="312.95 241.52 288.24 250.38 269.04 257.32 292.48 321.11 291.01 321.64 291.07 321.8 249.69 336.76 257.48 357.86 321.72 334.63 298.28 270.86 351.51 251.76 335.73 233.21 312.9 241.47 312.95 241.52"/><polygon class="a" points="248.76 265.37 207 281.31 207 205.03 180 213.27 180 313.08 255.04 286.5 248.76 265.37"/><polygon class="a" points="207 180.94 207 114.26 298.38 223.04 320.63 214.79 211.51 87.97 180 98.91 180 189.18 207 180.94"/><polygon class="a" points="269.04 257.32 288.24 250.38 269.02 257.28 269.04 257.32"/><path class="a" d="M478.46,0H0V375.47l12.48,6.26L240.37,494.94,250.54,500l10.18-5.06L488,381.73l12-6.26V0H478.46ZM479,361.48L251.5,474.69,24,361.48V24H479V361.48Z"/></svg>
