<?xml version="1.0" encoding="utf-8"?>
<svg version="1.1" id="Layer_1" xmlns="http://www.w3.org/2000/svg" xmlns:xlink="http://www.w3.org/1999/xlink" x="0px" y="0px"
	 viewBox="0 0 50 50" style="enable-background:new 0 0 50 50;" xml:space="preserve">
<style type="text/css">
	.st0{fill:#38BB7C;}
</style>
<g>
	<path class="st0" d="M50,9.2c-1.8,0.8-3.8,1.4-5.9,1.6c2.1-1.3,3.7-3.3,4.5-5.7c-2,1.2-4.2,2-6.5,2.5c-1.9-2-4.5-3.2-7.5-3.2
		C29,4.4,24.4,9,24.4,14.7c0,0.8,0.1,1.6,0.3,2.3C16.1,16.6,8.5,12.5,3.5,6.3c-0.9,1.5-1.4,3.3-1.4,5.2c0,3.6,1.8,6.7,4.6,8.5
		C5,19.9,3.4,19.5,2,18.7c0,0,0,0.1,0,0.1c0,5,3.5,9.1,8.2,10.1c-0.9,0.2-1.8,0.4-2.7,0.4c-0.7,0-1.3-0.1-1.9-0.2
		c1.3,4.1,5.1,7,9.6,7.1c-3.5,2.8-7.9,4.4-12.7,4.4c-0.8,0-1.6,0-2.4-0.1C4.5,43.3,9.9,45,15.7,45c18.9,0,29.2-15.6,29.2-29.2
		c0-0.4,0-0.9,0-1.3C46.9,13.1,48.6,11.3,50,9.2z"/>
</g>
</svg>
