<?xml version="1.0" encoding="utf-8"?>
<!-- Generator: Adobe Illustrator 19.2.1, SVG Export Plug-In . SVG Version: 6.00 Build 0)  -->
<svg version="1.2" baseProfile="tiny" id="Layer_1" xmlns="http://www.w3.org/2000/svg" xmlns:xlink="http://www.w3.org/1999/xlink"
	 x="0px" y="0px" viewBox="0 0 67.1 52.7" xml:space="preserve">
<path fill="#FF7396" d="M55.2,0H11.9C5.3,0,0,5.3,0,11.9v29c0,6.5,5.3,11.9,11.9,11.9h43.3c6.5,0,11.9-5.3,11.9-11.9v-29
	C67.1,5.3,61.7,0,55.2,0z M11.9,4h43.3c3.7,0,6.8,2.6,7.6,6L42.3,24.2c-5.3,3.6-12.3,3.6-17.6,0L4.2,10C5.1,6.6,8.2,4,11.9,4z
	 M55.2,48.7H11.9c-4.3,0-7.9-3.5-7.9-7.9V14.7l18.5,12.7c3.3,2.3,7.2,3.4,11.1,3.4c3.9,0,7.8-1.1,11.1-3.4l18.5-12.7v26.2
	C63.1,45.2,59.5,48.7,55.2,48.7z"/>
</svg>
