<?xml version="1.0" encoding="utf-8"?>
<!-- Generator: Adobe Illustrator 19.2.1, SVG Export Plug-In . SVG Version: 6.00 Build 0)  -->
<svg version="1.2" baseProfile="tiny" id="Layer_1" xmlns="http://www.w3.org/2000/svg" xmlns:xlink="http://www.w3.org/1999/xlink"
	 x="0px" y="0px" viewBox="0 0 69.1 72.5" xml:space="preserve">
<path fill="#FF7396" d="M67.3,26.6L44.9,4.3C39.3-1.4,30-1.4,24.3,4.2L1.8,26.4C0,28.2-0.5,30.7,0.5,33c0.9,2.3,3.1,3.8,5.6,3.8
	l0.1,0v23.9c0,6.5,5.3,11.8,11.8,11.8h33.2c6.5,0,11.8-5.3,11.8-11.8V37l0.1,0c0,0,0,0,0,0c2.5,0,4.6-1.4,5.6-3.7
	C69.6,30.9,69.1,28.4,67.3,26.6z M39.1,68.5H30V57.1c0-2.5,2-4.5,4.5-4.5c2.5,0,4.5,2,4.5,4.5V68.5z M58.9,60.7
	c0,4.3-3.5,7.8-7.8,7.8h-8V57.1c0-4.7-3.8-8.5-8.5-8.5c-4.7,0-8.5,3.8-8.5,8.5v11.4h-8c-4.3,0-7.8-3.5-7.8-7.8V36.8l48.8,0.1V60.7z
	 M64.9,31.7C64.8,32,64.3,33,63,33c0,0,0,0,0,0L6.1,32.8c-1.3,0-1.8-1-1.9-1.3c-0.1-0.3-0.5-1.3,0.5-2.2L27.1,7c2.1-2,4.8-3,7.5-3
	c2.7,0,5.4,1,7.5,3.1l22.4,22.3C65.4,30.3,65,31.4,64.9,31.7z"/>
</svg>
