<?xml version="1.0" encoding="utf-8"?>
<!-- Generator: Adobe Illustrator 19.2.1, SVG Export Plug-In . SVG Version: 6.00 Build 0)  -->
<svg version="1.2" baseProfile="tiny" id="Layer_1" xmlns="http://www.w3.org/2000/svg" xmlns:xlink="http://www.w3.org/1999/xlink"
	 x="0px" y="0px" viewBox="0 0 63.3 70.8" xml:space="preserve">
<g>
	<path fill="#FF7396" d="M51.5,7.5h-8.2C42.6,3.3,38.5,0,33.7,0h-24C4.3,0,0,3.9,0,8.8v34.6c0,4.8,4.3,8.8,9.7,8.8h3.2v6.7
		c0,6.5,5.3,11.9,11.9,11.9h26.7c6.5,0,11.9-5.3,11.9-11.9V19.4C63.3,12.9,58,7.5,51.5,7.5z M59.3,19.4v3.3H16.9v-3.3
		c0-4.3,3.5-7.9,7.9-7.9h26.7C55.8,11.5,59.3,15.1,59.3,19.4z M9.7,48.2C6.5,48.2,4,46,4,43.4V8.8C4,6.1,6.5,4,9.7,4h24
		c2.6,0,4.8,1.5,5.5,3.5H24.8c-6.5,0-11.9,5.3-11.9,11.9v28.8H9.7z M51.5,66.8H24.8c-4.3,0-7.9-3.5-7.9-7.9V26.7h42.5v32.2
		C59.3,63.2,55.8,66.8,51.5,66.8z"/>
	<path fill="#FF7396" d="M44.9,36.3H31.3c-4.7,0-8.5,3.8-8.5,8.5s3.8,8.5,8.5,8.5h13.6c4.7,0,8.5-3.8,8.5-8.5S49.6,36.3,44.9,36.3z
		 M44.9,49.4H31.3c-2.5,0-4.5-2-4.5-4.5s2-4.5,4.5-4.5h13.6c2.5,0,4.5,2,4.5,4.5S47.4,49.4,44.9,49.4z"/>
</g>
</svg>
